<?xml version="1.0" standalone="no"?>
<!DOCTYPE svg PUBLIC "-//W3C//DTD SVG 20010904//EN"
 "http://www.w3.org/TR/2001/REC-SVG-20010904/DTD/svg10.dtd">
<svg version="1.0" xmlns="http://www.w3.org/2000/svg"
 width="604.000000pt" height="417.000000pt" viewBox="0 0 604.000000 417.000000"
 preserveAspectRatio="xMidYMid meet">
<metadata>
Created by potrace 1.10, written by Peter Selinger 2001-2011
</metadata>
<g transform="translate(0.000000,417.000000) scale(0.050000,-0.050000)"
fill="#000000" stroke="none">
<path d="M73 8324 c-35 -56 -97 -2052 -64 -2020 9 7 23 327 32 710 20 815 39
1233 55 1217 13 -13 55 -836 73 -1436 99 -3258 166 -4675 221 -4675 57 0 86
546 160 2990 33 1077 87 2334 101 2348 5 5 9 -8 9 -29 0 -21 9 -159 19 -308
11 -149 34 -635 50 -1081 90 -2375 110 -2829 137 -3078 63 -595 127 -130 194
1418 82 1877 123 2564 151 2535 18 -17 92 -1240 130 -2135 31 -748 84 -1499
112 -1616 38 -152 94 92 116 506 7 132 21 366 32 520 10 154 28 487 39 740 31
704 77 1419 96 1469 18 49 51 -286 84 -860 106 -1818 123 -1994 190 -1939 32
26 78 407 120 980 53 737 91 1203 114 1378 40 319 55 208 187 -1358 96 -1146
172 -991 310 625 22 258 72 634 85 648 19 18 65 -374 125 -1053 31 -351 76
-674 98 -695 55 -56 88 59 140 485 81 670 93 769 115 895 16 99 56 191 56 130
0 -3 14 -76 30 -163 17 -87 53 -317 80 -510 71 -501 111 -682 150 -682 46 0
91 148 121 399 70 584 113 835 140 808 18 -18 56 -212 140 -707 100 -588 162
-528 299 291 27 165 82 335 102 315 10 -10 45 -130 78 -267 163 -670 197 -691
331 -203 79 287 100 344 127 344 15 0 101 -251 134 -390 79 -332 153 -310 287
83 117 344 125 345 230 28 115 -347 159 -355 281 -56 115 282 121 283 250 45
131 -241 163 -245 295 -45 122 185 142 188 234 36 131 -216 169 -218 321 -21
111 145 143 148 231 26 154 -215 160 -216 334 -20 81 91 105 92 200 6 115
-104 163 -103 297 8 120 99 118 99 246 -10 127 -108 163 -111 291 -20 114 81
181 87 309 29 87 -39 117 -40 94 -3 -15 25 -196 84 -259 84 -26 0 -94 -32
-150 -70 -131 -90 -164 -88 -273 13 -114 104 -160 104 -292 0 -127 -102 -131
-102 -243 -3 -121 106 -153 102 -266 -30 -118 -138 -124 -138 -248 20 -136
174 -172 170 -321 -38 -104 -144 -123 -139 -251 61 -110 172 -153 169 -270
-23 -39 -65 -87 -127 -106 -139 -38 -23 -38 -23 -133 148 -159 285 -204 278
-328 -53 -92 -243 -120 -230 -221 104 -101 332 -159 313 -300 -100 -101 -299
-121 -305 -196 -60 -124 406 -135 430 -187 430 -41 0 -69 -67 -150 -368 -106
-389 -119 -392 -198 -52 -76 322 -117 462 -152 516 l-34 51 -35 -44 c-39 -48
-54 -109 -139 -563 -31 -170 -66 -332 -76 -360 l-20 -50 -19 50 c-21 53 -57
236 -125 640 -49 292 -76 392 -113 423 -54 44 -74 -47 -177 -803 -73 -535 -90
-529 -178 60 -174 1174 -221 1192 -342 130 -51 -442 -94 -739 -110 -757 -22
-24 -53 222 -121 957 -46 503 -58 610 -81 699 -26 102 -71 121 -89 36 -7 -30
-16 -68 -20 -85 -8 -32 -62 -513 -79 -700 -62 -698 -108 -1095 -130 -1138 -29
-56 -65 275 -161 1488 -76 967 -171 1003 -237 90 -84 -1156 -140 -1799 -159
-1834 -26 -47 -57 330 -122 1474 -63 1116 -105 1447 -168 1345 -18 -29 -71
-744 -103 -1385 -71 -1433 -106 -1954 -130 -1890 -16 46 -64 803 -110 1740
-86 1754 -119 2105 -188 1994 -35 -58 -72 -633 -152 -2404 -43 -962 -95 -1743
-114 -1724 -19 19 -69 982 -96 1844 -10 336 -23 678 -29 760 -6 83 -21 425
-32 760 -34 1011 -73 1410 -129 1320 -30 -49 -74 -912 -110 -2160 -62 -2157
-104 -3163 -130 -3137 -16 16 -71 1180 -99 2077 -6 182 -20 587 -31 900 -11
314 -29 836 -40 1160 -40 1171 -61 1653 -80 1796 -11 81 -20 155 -20 165 0 23
-34 25 -47 3z"/>
</g>
</svg>
