<?xml version="1.0" standalone="no"?>
<!DOCTYPE svg PUBLIC "-//W3C//DTD SVG 20010904//EN"
 "http://www.w3.org/TR/2001/REC-SVG-20010904/DTD/svg10.dtd">
<svg version="1.0" xmlns="http://www.w3.org/2000/svg"
 width="300.000000pt" height="208.000000pt" viewBox="0 0 300.000000 208.000000"
 preserveAspectRatio="xMidYMid meet">
<metadata>
Created by potrace 1.10, written by Peter Selinger 2001-2011
</metadata>
<g transform="translate(0.000000,208.000000) scale(0.100000,-0.100000)"
fill="#000000" stroke="none">
<path d="M2 2060 c0 -14 2 -19 5 -12 2 6 2 18 0 25 -3 6 -5 1 -5 -13z"/>
<path d="M15 2008 c-3 -18 -8 -251 -9 -518 l-4 -485 8 473 c4 260 10 475 13
478 8 9 17 -153 27 -541 14 -489 16 -438 -20 -433 -24 4 -30 1 -30 -14 0 -14
8 -18 33 -18 l32 0 3 -158 c4 -214 22 -635 30 -700 4 -29 12 -53 17 -53 6 0
13 24 17 53 7 55 27 549 30 746 l1 112 39 0 38 0 0 -117 c0 -115 13 -376 26
-520 4 -49 11 -73 19 -73 18 0 23 44 35 310 6 129 13 272 16 318 l6 82 34 0
c33 0 34 -1 34 -42 0 -72 22 -421 29 -462 3 -22 11 -41 18 -43 17 -6 20 24 48
450 l7 97 34 0 c30 0 34 -3 34 -27 0 -59 29 -369 35 -386 10 -25 22 -21 30 10
6 24 34 337 35 386 0 13 9 17 39 17 l38 0 2 -67 c2 -75 18 -224 27 -248 10
-25 23 -17 33 23 8 31 31 239 31 280 0 7 15 12 39 12 l38 0 6 -87 c11 -139 34
-198 56 -140 8 20 31 181 31 215 0 7 14 12 39 12 l38 0 7 -64 c8 -78 24 -126
41 -126 14 0 45 115 45 164 0 23 4 26 39 26 38 0 39 -1 45 -42 21 -134 56
-142 79 -19 l12 61 37 0 c39 0 40 -1 53 -68 14 -66 57 -48 70 29 7 38 7 39 51
39 33 0 44 -4 44 -15 0 -9 7 -30 16 -46 15 -29 16 -30 34 -14 10 9 22 30 25
46 6 26 10 29 48 29 36 0 44 -4 59 -30 22 -38 42 -38 58 0 11 28 16 30 61 30
35 0 49 -4 49 -14 0 -7 7 -20 16 -27 14 -11 20 -10 40 14 19 22 32 27 67 27
27 0 49 -6 57 -15 16 -19 34 -19 50 0 15 19 110 21 128 3 10 -10 17 -10 32 -1
12 8 70 12 172 12 464 -1 468 -1 468 20 0 17 -10 19 -177 18 -98 0 -190 4
-205 8 -15 4 -33 3 -40 -1 -23 -15 -106 -13 -119 2 -14 17 -41 18 -57 2 -7 -7
-33 -14 -58 -14 -34 -1 -47 3 -55 17 -13 24 -45 24 -58 0 -16 -28 -95 -24
-116 7 -20 28 -40 28 -59 0 -11 -15 -27 -23 -54 -24 -36 -2 -41 1 -55 32 -21
43 -44 43 -62 0 -13 -30 -18 -33 -54 -33 -36 0 -41 3 -46 27 -7 32 -39 65 -54
56 -6 -4 -16 -24 -22 -45 -11 -36 -14 -38 -49 -38 -36 0 -39 2 -49 41 -22 84
-51 87 -73 10 -13 -45 -16 -48 -49 -50 l-35 -3 -18 70 c-25 98 -50 94 -72 -11
l-11 -55 -39 0 -39 0 -7 60 c-16 150 -59 154 -75 8 l-8 -68 -40 0 c-38 0 -39
1 -42 40 -12 146 -41 228 -62 173 -5 -13 -15 -67 -22 -120 l-12 -96 -34 0
c-18 0 -33 5 -33 12 0 6 -7 63 -14 126 -15 124 -31 179 -46 164 -14 -14 -29
-100 -36 -209 l-7 -94 -35 3 c-34 2 -35 3 -38 51 -11 134 -25 276 -30 304 -8
36 -29 41 -38 9 -5 -22 -23 -221 -29 -318 -2 -44 -3 -45 -37 -45 -34 0 -35 1
-37 40 -20 350 -35 477 -54 458 -12 -12 -26 -129 -34 -278 -12 -239 -8 -219
-48 -221 l-34 -3 -7 177 c-8 194 -23 401 -32 445 -8 38 -20 34 -28 -10 -7 -43
-23 -305 -30 -488 l-5 -120 -34 -2 -35 -2 -6 187 c-9 244 -25 540 -33 597 -7
51 -18 58 -26 18 -7 -30 -23 -344 -33 -624 l-6 -177 -33 1 -33 1 -6 195 c-23
687 -32 861 -46 861 -4 0 -11 -15 -15 -32z m205 -648 c7 -195 13 -359 14 -365
0 -5 -14 -10 -33 -10 l-35 0 3 65 c1 36 6 169 11 295 5 127 10 268 10 315 0
51 4 79 9 70 5 -8 14 -175 21 -370z m169 -52 c6 -145 14 -277 17 -294 4 -31 3
-32 -32 -32 l-37 0 6 112 c4 61 9 183 12 271 6 149 11 205 19 205 1 0 8 -118
15 -262z m170 -43 c6 -93 14 -196 17 -227 l6 -58 -37 0 -37 0 6 63 c3 34 8
121 11 192 6 127 14 210 20 203 2 -2 8 -79 14 -173z m176 -101 c8 -93 15 -172
15 -176 0 -5 -16 -8 -36 -8 l-36 0 6 58 c3 31 8 91 11 132 8 105 16 172 21
167 2 -2 11 -80 19 -173z m171 -31 c19 -156 20 -151 -21 -151 l-34 0 5 42 c17
147 24 212 24 220 0 5 3 7 6 3 3 -3 12 -55 20 -114z m168 -15 c4 -35 10 -80
13 -100 5 -37 5 -38 -26 -38 -22 0 -31 5 -31 17 0 45 23 192 30 188 4 -2 10
-33 14 -67z m174 -48 c16 -92 17 -87 -19 -88 -29 -1 -31 1 -25 31 3 18 8 53
12 80 3 26 9 47 13 47 4 0 12 -32 19 -70z m171 -20 c15 -70 15 -70 -20 -70
-28 0 -31 3 -25 23 3 12 9 39 12 60 9 51 20 46 33 -13z m181 -52 c0 -13 -8
-18 -31 -18 -33 0 -33 3 -6 70 l9 25 14 -30 c7 -16 13 -38 14 -47z m165 10 c6
-25 5 -28 -19 -28 -29 0 -31 6 -16 46 12 31 25 24 35 -18z m175 -14 c0 -8 -10
-14 -25 -14 -28 0 -29 3 -14 31 8 16 13 18 25 8 8 -6 14 -18 14 -25z m168 -1
c2 -8 -6 -13 -22 -13 -25 0 -33 10 -19 24 10 10 36 3 41 -11z m172 -3 c0 -5
-9 -10 -20 -10 -11 0 -20 5 -20 10 0 6 9 10 20 10 11 0 20 -4 20 -10z m165 0
c3 -5 -3 -10 -15 -10 -12 0 -18 5 -15 10 3 6 10 10 15 10 5 0 12 -4 15 -10z
m-90 -40 c3 -5 -1 -10 -10 -10 -9 0 -13 5 -10 10 3 6 8 10 10 10 2 0 7 -4 10
-10z m-2210 -132 c-3 -73 -10 -266 -16 -428 -6 -162 -12 -296 -13 -298 -5 -4
-35 701 -36 821 0 36 1 37 35 37 l36 0 -6 -132z m175 105 c0 -66 -30 -636 -33
-640 -6 -5 -16 173 -22 387 -3 102 -8 206 -11 233 l-5 47 36 0 c32 0 35 -3 35
-27z m170 -5 c-1 -75 -29 -471 -34 -476 -4 -3 -6 8 -6 24 0 42 -19 403 -24
447 -4 36 -3 37 30 37 32 0 34 -2 34 -32z m170 15 c0 -63 -24 -351 -30 -362
-4 -8 -11 42 -15 110 -4 68 -10 157 -14 197 l-7 72 33 0 c25 0 33 -4 33 -17z
m169 -40 c-4 -32 -11 -97 -14 -145 -4 -49 -10 -88 -15 -88 -4 0 -10 44 -14 98
-4 53 -9 118 -13 145 l-6 47 35 0 35 0 -8 -57z m165 -30 c-7 -49 -13 -98 -13
-111 -2 -52 -19 -7 -25 65 -4 43 -9 90 -12 106 -5 25 -3 27 28 27 l34 0 -12
-87z m182 70 c-3 -10 -10 -49 -17 -87 -13 -75 -22 -72 -33 9 -4 28 -10 60 -13
73 -5 20 -1 22 32 22 30 0 35 -3 31 -17z m168 -10 c-17 -75 -26 -105 -31 -100
-3 3 -11 33 -18 66 l-13 61 34 0 c32 0 34 -2 28 -27z m163 -18 c-6 -25 -14
-45 -18 -45 -7 0 -29 62 -29 83 0 4 13 7 29 7 l28 0 -10 -45z m172 15 c-13
-37 -22 -38 -37 -5 -16 35 -16 35 17 35 29 0 30 -1 20 -30z m171 10 c-6 -11
-15 -20 -20 -20 -5 0 -14 9 -20 20 -10 18 -8 20 20 20 28 0 30 -2 20 -20z
m170 5 c-7 -8 -16 -15 -20 -15 -4 0 -10 7 -14 15 -4 11 2 15 21 15 21 0 24 -2
13 -15z m170 11 c0 -11 -19 -15 -25 -6 -3 5 1 10 9 10 9 0 16 -2 16 -4z"/>
</g>
</svg>
